<svg width="370" height="200" viewBox="0 0 370 200" fill="none" xmlns="http://www.w3.org/2000/svg">
<path fill-rule="evenodd" clip-rule="evenodd" d="M305.536 42.879C305.279 42.236 305.078 41.573 304.932 40.896C304.724 39.721 303.805 36.808 302.864 35.867C301.312 34.317 298.203 36.454 296.818 34.61C295.837 33.303 296.434 31.759 296.068 30.296C295.923 29.713 296.012 28.787 295.696 28.261C295.337 27.664 294.657 27.131 294.488 26.45C294.25 25.506 295.348 25.134 295.48 24.337C295.701 23.016 295.394 21.649 295.394 20.327C295.394 19.562 295.255 18.334 295.356 17.616C295.385 17.408 295.864 15.039 297.206 14.592C299.602 13.794 302.495 16.178 304.499 17.179C305.393 17.626 306.527 18.537 307.477 18.774C308.433 18.986 309.323 19.43 310.067 20.067C311.254 21.105 311.96 22.699 312.57 24.12C313.474 26.202 314.135 28.38 314.54 30.613C314.719 31.688 315.78 34.421 315.78 34.421C315.78 34.421 311.331 39.706 308.299 40.463C307.604 40.637 306.49 40.844 306.141 41.541C305.983 41.859 305.825 42.173 305.667 42.49C305.634 42.556 305.631 43.091 305.538 42.878L305.536 42.879Z" fill="white"/>
<path fill-rule="evenodd" clip-rule="evenodd" d="M21.9166 34.4859C21.9166 34.4859 21.2716 33.3879 21.0926 33.0799C20.5806 32.1959 19.1746 31.1719 18.2486 30.7099C16.4286 29.8009 14.6706 30.7129 12.7306 30.2289C12.2936 30.1189 11.5986 29.8989 11.3446 29.3899C11.1636 29.0269 10.7026 26.8869 10.9216 26.6129C11.0636 26.4359 11.5376 26.2669 11.6856 26.1719C12.3356 25.7369 12.8616 25.1419 13.2136 24.4439C13.3446 24.1489 12.8836 24.2509 12.7716 24.2829C12.1406 24.4629 11.5246 24.8389 10.8416 24.6449C10.3376 24.5009 10.4656 23.6569 10.1136 22.9649C9.85255 22.4499 9.21455 21.8359 8.94455 21.3869C8.35255 20.3999 10.0136 20.1269 10.1576 19.2629C10.3816 17.9209 10.0836 16.3419 9.91655 15.0049C9.80955 14.1509 9.97255 12.8779 10.0566 12.0389C10.1206 11.3939 10.2146 10.6619 10.8006 10.2229C11.2556 9.88093 11.9986 9.99992 12.5296 9.94092C13.9976 9.77892 15.7486 9.85493 17.1126 10.4229C19.0076 11.2119 20.2056 12.5269 21.8166 13.6769C22.9766 14.5049 24.3156 15.0629 25.3946 16.0069C27.0076 17.4179 28.2306 19.9739 28.9726 21.9529C29.3296 22.9339 29.6126 23.9399 29.8196 24.9629C29.8196 24.9629 31.6666 27.2759 31.4656 27.5779C31.2616 27.8829 30.5646 27.8489 30.2596 27.9789C29.1616 28.4499 28.2146 29.1329 27.1726 29.7269C25.8946 30.4569 24.8786 31.1859 23.9176 32.2849C23.3656 32.9109 21.9146 34.4869 21.9146 34.4869L21.9166 34.4859Z" fill="white"/>
<path fill-rule="evenodd" clip-rule="evenodd" d="M28.9516 180.221C28.9516 180.221 28.6596 180.346 28.1566 180.628C27.5996 180.939 27.0396 181.302 26.4776 181.588C25.0006 182.34 23.4766 182.715 21.8566 182.373C19.7666 181.934 18.1736 180.779 16.2386 180.048C15.9026 179.878 15.5856 179.672 15.2936 179.434C15.2936 179.434 14.0846 180.367 13.7416 180.78C13.0096 181.665 12.0056 182.476 11.1016 183.189C8.50557 185.238 4.84657 184.683 2.23857 186.742C1.37057 187.428 0.0265689 189.691 0.667569 190.947C1.53457 192.648 2.86957 192.266 4.43257 192.718C5.44257 193.01 6.45557 192.924 7.50157 192.975C10.2056 193.111 12.7896 193.385 15.4706 192.827C16.7146 192.568 19.2816 190.702 20.5586 190.997C21.6446 191.248 21.8046 192.355 22.8326 192.627C23.4676 192.795 24.2926 192.756 24.9606 192.774C26.7076 192.82 29.2696 193.583 30.6056 192.013C31.0546 191.487 30.7226 190.293 30.7386 189.674C30.7876 187.786 30.1726 184.54 29.7406 183.015C29.5526 182.35 28.9516 180.219 28.9516 180.219V180.221Z" fill="#D7E8F4"/>
<path fill-rule="evenodd" clip-rule="evenodd" d="M68.5836 178.185C68.5836 178.185 67.9726 179.813 67.1326 180.687C66.4056 181.442 64.6706 182.326 64.4826 182.422C63.4296 182.965 61.7596 182.909 60.4246 182.872C59.2836 182.841 58.3806 182.864 58.3806 182.864C58.3806 182.864 57.1306 185.562 56.7416 186.508C55.9486 188.434 55.2946 189.73 53.5216 190.814C51.8256 191.852 49.4796 192.866 48.4716 194.68C48.1606 195.237 47.8426 196.302 48.4456 196.904C49.3476 197.806 51.3156 198.317 52.4846 198.472C54.7696 198.773 58.8116 198.855 61.5196 198.367C63.0766 198.087 63.5216 197.732 64.6596 196.833C66.0716 195.72 66.0016 193.733 67.6956 192.781C68.8636 192.125 70.4036 192.193 71.6616 191.782C72.6936 191.446 73.5106 190.831 74.3676 190.194C75.0786 189.666 76.0736 188.431 76.3086 187.473C76.5196 186.619 75.0336 184.95 74.5956 184.397C73.6236 183.167 72.9206 182.524 71.9416 181.387C71.0646 180.367 68.5846 178.187 68.5846 178.187L68.5836 178.185Z" fill="#D7E8F4"/>
<path fill-rule="evenodd" clip-rule="evenodd" d="M299.07 185.054C299.07 185.054 296.368 187.303 295.225 187.306C292.355 187.313 290.18 186.382 287.653 185.225C287.042 184.945 286.231 184.306 285.713 183.873C285.627 183.799 285.532 183.736 285.431 183.685C285.431 183.685 284.085 184.482 283.71 184.915C282.848 185.861 281.857 186.68 280.767 187.35C278.182 188.882 274.934 188.96 272.353 190.491C271.442 191.031 270.456 192.468 270.917 193.563C271.844 195.761 275.792 195.977 277.643 196.351C280.186 196.863 283.086 196.337 285.671 196.19C287.176 196.103 289.055 194.605 290.558 194.767C291.75 194.896 291.825 196.26 292.921 196.54C293.622 196.719 294.485 196.54 295.204 196.551C296.77 196.578 299.606 196.702 301.004 195.84C301.883 195.296 301.503 194.524 301.235 193.531C300.87 192.179 300.58 190.154 300.333 189.187C300.169 188.546 299.071 185.054 299.071 185.054H299.07Z" fill="#D7E8F4"/>
<path fill-rule="evenodd" clip-rule="evenodd" d="M362.347 178.81C362.282 178.943 362.227 179.083 362.183 179.224L362.347 178.81Z" fill="#D7E8F4"/>
<path fill-rule="evenodd" clip-rule="evenodd" d="M362.459 179.111C362.459 179.111 362.252 179.012 362.062 179.421C361.765 180.09 361.429 180.742 361.055 181.373C360.283 182.619 358.683 183.037 357.295 183.037C355.582 183.035 353.871 182.905 352.177 182.649C351.566 182.555 350.81 182.198 350.203 182.198C349.855 182.198 349.606 182.956 349.464 183.184C348.991 183.977 348.336 184.646 347.553 185.136C345.634 186.287 343.376 186.962 341.348 187.931C340.55 188.312 339.616 188.597 338.923 189.165C337.918 189.987 337.414 191.535 338.051 192.807C338.389 193.482 339.701 194.404 340.361 194.506C342.386 194.817 343.843 195.088 345.886 195.169C348.4 195.269 350.888 195.39 353.326 194.577C354.599 194.153 355.464 192 356.762 191.87C357.317 191.841 357.873 191.87 358.421 191.958C359.562 192.243 360.03 193.153 361.222 193.244C363.067 193.386 364.763 192.409 366.4 191.682C367.218 191.32 368.153 190.839 368.699 190.075C369.34 189.177 368.528 187.988 368.088 187.182C367.209 185.573 366.323 183.434 365.022 182.134C364.161 181.273 362.459 179.114 362.459 179.114V179.111Z" fill="#D7E8F4"/>
<path fill-rule="evenodd" clip-rule="evenodd" d="M311.69 58.92C311.433 58.262 310.262 58.345 309.576 58.23C309.027 58.139 308.197 57.586 307.751 57.251C306.363 56.211 306.21 54.005 305.926 52.449C305.589 50.598 304.96 48.764 304.502 46.934C304.149 45.529 303.793 42.594 303.793 42.594L304.449 40.863C304.449 40.863 305.249 41.5 305.945 41.4C306.8 41.278 308.652 40.55 309.352 40.083C311.091 38.895 312.756 37.603 314.338 36.214C315.001 35.646 315.897 33.824 315.897 33.824C316.591 34.088 317.226 34.487 317.763 35C318.5 35.771 320.325 37.705 322.051 39.149C323.706 40.567 326.41 42.383 327.692 44.175C329.458 46.683 330.869 49.424 331.881 52.319C332.829 55.16 333.664 57.84 334.397 60.768C336.025 67.276 335.776 69.705 336.511 76.322C336.777 78.708 337.933 82.453 338.834 85.629C339.441 87.765 339.943 89.434 339.943 91.044C339.943 92.396 339.021 96.536 339.021 96.536C339.021 96.536 337.548 96.464 336.728 96.347C334.821 96.084 332.961 95.544 331.208 94.746C327.11 92.884 324.258 89.296 322.039 85.494C320.237 82.409 318.807 79.77 318.211 76.198C317.723 73.274 317.481 70.417 316.297 67.658C315.59 66.01 313.951 65.099 313.025 63.515C312.274 62.231 312.222 60.281 311.689 58.918L311.69 58.92Z" fill="white"/>
<path fill-rule="evenodd" clip-rule="evenodd" d="M297.946 90.9031C297.042 95.2801 293.987 115.802 293.987 115.802C293.987 115.802 289.977 120.338 288.332 122.464C284.769 127.069 280.87 132.81 280.217 138.786C279.887 141.802 280.509 144.631 281.071 147.574C281.631 150.505 282.206 154.867 282.901 157.849C283.57 160.717 284.106 162.747 284.253 165.619C284.342 167.348 284.522 168.589 284.398 170.32C284.319 171.435 284.163 172.516 284.296 173.644C284.496 175.331 286.128 176.458 286.198 178.155C286.266 179.8 284.112 182.369 285.609 183.657C285.915 183.92 286.694 184.713 287.054 184.892C287.287 185.007 289.127 186.106 289.428 186.208C291.076 186.768 293.851 187.391 295.868 186.966C297.068 186.715 298.578 185.112 299.364 184.222C300.221 183.251 299.488 182.717 299.101 181.66C298.853 180.982 298.699 179.539 298.774 178.83C298.948 177.167 299.827 175.034 300.036 173.356C300.544 169.285 299.2 166.314 299.284 162.248C299.34 159.592 300.053 155.412 300.134 153.923C300.214 152.434 300.053 150.577 299.85 148.869C299.646 147.157 299.019 145.467 299.619 143.741C300.208 142.04 303.477 139.121 304.475 137.652C305.989 135.423 306.03 135.42 307.911 133.512C308.273 133.144 310.014 131.623 310.014 131.623C310.014 131.623 310.823 136.095 311.11 137.761C311.765 141.561 313.104 143.453 315.074 146.777C316.747 149.599 322.369 156.314 325.879 159.848C327.789 161.773 329.985 164.062 331.831 166.042C333.569 167.906 334.857 168.966 336.657 170.755C338.037 172.127 339.148 172.324 340.686 173.397C341.433 173.919 342.253 174.283 343.097 175.098C343.702 175.681 345.919 176.678 346.403 177.153C347.619 178.343 347.42 180.439 348.319 181.304C348.703 181.673 349.683 181.778 350.386 182.039C353.776 183.301 358.647 183.758 361.423 181.115C362.109 180.462 362.526 178.983 362.276 177.734C362.026 176.484 359.613 174.182 359.613 174.182C359.613 174.182 357.9 172.419 357.449 171.844C356.946 171.201 356.021 169.825 355.582 168.262C355.143 166.7 353.231 164.038 350.755 161.576C347.115 157.958 343.17 152.699 339.263 149.366C337.075 147.5 334.853 146.68 333.316 144.194C331.981 142.032 332.944 139.137 332.925 136.704C332.904 133.728 332.451 129.21 333.153 126.247C334.668 119.849 338.575 114.989 339.916 108.506C340.628 105.066 339.309 96.4401 339.309 96.4401C339.309 96.4401 337.791 97.1811 335.474 96.6231C333.186 96.0721 326.179 95.5161 325.467 94.9551C323.349 93.2851 311.172 92.2151 311.172 92.2151" fill="#133340"/>
<path fill-rule="evenodd" clip-rule="evenodd" d="M314.61 64.6331C314.61 64.6331 315.789 66.6401 316.29 67.6421C316.994 69.0471 317.878 70.3461 318.577 71.7431C319.064 72.7151 319.385 73.7861 319.926 74.7311C320.573 75.8641 321.191 76.9901 321.356 78.3081C321.795 81.8111 318.778 84.0001 317.172 86.6741C316.157 88.3641 314.996 90.4001 313.992 92.0731C312.721 94.1891 310.783 97.8181 309.959 98.9251C309.135 100.032 308.987 99.9641 308.364 100.462C307.978 100.77 306.651 101.62 306.651 101.62C306.651 101.62 306.806 105.174 306.6 106.809C306.509 107.54 306.715 108.516 306.498 109.236C306.327 109.806 305.407 110.901 305.407 110.901C305.407 110.901 306.162 112.201 306.264 112.809C306.428 113.797 306.113 114.275 305.435 114.784C305.28 114.9 302.565 115.896 302.928 116.042C304.21 116.554 306.785 115.594 307.35 114.605C309.504 110.84 310.541 107.31 313.373 104.007C315.034 102.071 318.101 100 320.018 98.3751C322.684 96.1171 325.431 93.4941 328.172 90.9171C330.414 88.8101 333.615 86.1451 334.405 82.9901C334.965 80.7511 334.701 78.5741 334.053 76.4291C333.507 74.6201 332.27 69.7841 331.708 66.4111C331.481 65.0521 331.154 60.7231 331.154 60.7231C331.154 60.7231 328.318 60.1111 327.3 59.9421C325.703 59.6761 323.223 59.9441 321.612 60.3471C319.003 61.0001 314.609 64.6351 314.609 64.6351L314.61 64.6331Z" fill="white"/>
<path fill-rule="evenodd" clip-rule="evenodd" d="M299.016 16.0401C299.016 16.0401 299.569 16.9531 299.649 17.0531C300.15 17.6791 300.943 17.9421 301.601 18.3361C302.162 18.6711 302.568 19.1711 302.977 19.7161C303.499 20.4001 304.194 20.9321 304.989 21.2601C306.353 21.8061 308.054 21.2681 309.457 21.6191C310.639 21.9141 310.673 23.5601 310.617 23.8981C310.561 24.2361 310.205 25.6611 310.205 25.6611C310.205 25.6611 311.515 26.3711 312.175 27.1611C312.835 27.9511 313.27 29.1391 314.181 29.3671C314.9 29.5461 315.258 29.8171 316.148 28.7781C317.197 27.5521 318.727 24.9671 318.727 24.9671C318.727 24.9671 316.525 23.2701 315.157 22.1311C313.253 20.5451 311.124 19.2481 308.841 18.2821C307.646 17.7701 306.844 16.6561 306.844 16.6561C306.844 16.6561 302.674 16.0371 301.324 16.0371H299.017L299.016 16.0401Z" fill="#133340"/>
<path fill-rule="evenodd" clip-rule="evenodd" d="M294.232 14.719C292.893 14.728 293.382 18.059 294.77 18.337C295.26 18.434 295.735 16.809 295.831 16.478C296.12 15.467 295.356 14.712 294.231 14.72L294.232 14.719Z" fill="#133340"/>
<path fill-rule="evenodd" clip-rule="evenodd" d="M318.399 24.9599C318.399 24.8009 318.642 24.8279 318.75 24.7499C319.119 24.4809 319.415 23.9979 319.661 23.6289L318.399 24.9599Z" fill="#1B3445"/>
<path fill-rule="evenodd" clip-rule="evenodd" d="M293.648 17.4839C293.648 17.4839 290.223 17.2289 289.022 16.4809C288.325 16.0479 287.926 15.3989 287.441 14.7659C287.233 14.4929 286.891 13.0989 287.481 12.7389C288.19 12.3049 289.908 12.1319 290.705 11.9809C292.494 11.6409 296.916 10.9629 296.916 10.9629C297.169 10.4399 297.513 9.96589 297.932 9.56289C298.728 8.83589 299.654 8.53289 300.955 7.79589C301.948 7.23489 302.575 6.71889 303.578 6.43789C305.782 5.82289 309.869 6.51589 311.899 7.26589C314.029 8.05489 314.853 8.44589 316.787 9.68489C319.387 11.3509 321.424 15.4019 321.287 18.3529C321.208 20.0589 320.756 21.9489 319.837 23.3839C319.542 23.8449 318.584 25.0569 318.584 25.0569C318.584 25.0569 316.474 23.1669 314.934 22.0239C314.179 21.4639 312.599 20.4699 310.767 19.3219C308.581 17.9509 306.169 16.4529 306.169 16.4529C306.169 16.4529 301.199 16.4309 298.345 15.9209C297.153 15.7079 295.861 15.5209 294.769 14.9749C294.608 14.8939 293.478 14.4069 293.478 14.4069C293.378 15.0069 293.332 15.6139 293.339 16.2209C293.373 16.6559 293.476 17.0819 293.647 17.4839H293.648Z" fill="#1B92D1"/>
<path fill-rule="evenodd" clip-rule="evenodd" d="M31.9316 96.5021C35.2556 98.5781 44.2316 95.4451 44.2316 95.4451L51.2296 115.607C51.2296 115.607 48.8856 125.296 48.5056 131.694C48.4476 132.662 48.6636 135.197 48.4646 136.574C48.1536 138.728 47.0056 139.775 46.6916 141.602C46.4046 143.277 46.5746 146.074 46.7666 146.726C46.9856 147.471 47.5676 148.819 48.5136 149.662C49.5776 150.608 51.0746 151.094 52.5176 152.861C54.1436 154.854 55.3606 158.138 57.0136 160.72C58.2636 162.671 59.9686 163.964 61.1146 165.432C62.1846 166.803 62.8806 167.545 63.4426 168.58C64.4936 170.509 65.0176 172.47 66.1926 174.483C67.5006 176.723 68.8646 176.638 68.4826 178.088C68.3446 178.611 67.0086 181.284 65.3896 182.2C63.7756 183.114 62.1106 182.81 60.2406 182.794C58.3706 182.778 58.2136 183.626 56.9506 182.441C55.8446 181.402 55.1426 178.621 53.9406 177.205C53.1196 176.239 51.9786 174.256 50.8116 173.399C48.6736 171.829 46.7816 171.305 44.6026 168.758C43.6096 167.597 42.4166 166.064 40.6856 163.929C38.6176 161.379 35.9326 158.157 33.9936 156.25C31.9126 154.203 30.0716 153.547 28.8586 151.068C27.2936 147.871 27.4466 144.517 27.2916 141.418C27.1146 137.882 26.8786 134.976 26.8786 134.976C26.8786 134.976 25.3656 136.471 23.7816 138.269C22.4536 139.777 20.9856 141.492 21.1916 142.798C21.5436 145.03 21.9986 150.4 22.8386 153.357C24.0236 157.527 24.8396 159.726 25.4016 162.855C25.5406 163.626 25.4166 166.341 25.6436 167.153C25.7646 167.587 26.3096 168.952 26.4566 169.384C27.3266 171.936 27.4036 171.186 28.2416 173.009C28.6446 173.888 27.9266 175.363 28.3656 176.595C28.7576 177.698 29.4686 179.063 29.3026 179.302C28.2486 180.826 25.7066 182.48 22.1716 182.48C21.0736 182.48 17.3746 180.032 16.3386 179.774C15.8356 179.647 14.8836 178.748 14.9716 178.88C15.1956 179.216 14.2896 177.429 14.2376 177.028C13.7906 173.567 13.6306 169.902 12.3316 167.739C11.2316 165.906 9.63461 164.489 8.75361 162.435C6.64161 157.511 5.53961 153.653 3.64961 148.617C2.70761 146.106 1.51061 142.26 0.929607 139.647C0.678607 138.519 0.484607 137.707 0.682607 136.518C1.11961 133.878 1.91761 131.311 3.05361 128.887C4.26261 126.23 5.99461 123.278 7.30161 120.666C7.93461 119.4 13.3666 111.004 14.6396 107.613C15.1996 106.121 15.8046 103.781 16.3156 102.209C17.2156 99.4361 18.8946 97.3931 19.3006 94.5491" fill="#133340"/>
<path fill-rule="evenodd" clip-rule="evenodd" d="M33.6366 20.0089C34.5136 18.6119 35.2496 17.2059 35.7006 15.8549C36.3716 13.8509 36.7546 11.7249 35.6296 9.57792C35.1846 8.72792 33.9916 6.70592 33.3776 5.95592C31.7676 3.99092 29.4576 2.80692 27.0836 2.22992C26.0966 1.98992 24.1316 1.21492 23.0956 1.24292C23.0956 1.24292 19.5556 0.903925 18.1596 1.21992C16.7196 1.54592 14.7356 3.01392 13.5716 3.89092C12.9026 4.40192 12.2986 4.99292 11.7716 5.64892C11.7716 5.64892 9.94357 5.92492 8.10857 6.26292C5.47657 6.74792 2.75857 6.93393 2.20757 7.95592C1.73457 8.83192 2.88657 10.7339 4.54857 11.5469C6.17457 12.3429 8.30757 12.0609 8.30757 12.0609L8.10357 9.02493L11.7116 10.5669L21.6336 11.4789L33.6346 20.0059L33.6366 20.0089Z" fill="#1B92D1"/>
<path fill-rule="evenodd" clip-rule="evenodd" d="M21.7526 1L21.4896 1.007L21.7526 1Z" fill="#1B3445"/>
<path fill-rule="evenodd" clip-rule="evenodd" d="M10.6405 10.0129L8.20451 8.87988C8.20451 8.87988 7.79351 10.9689 8.26851 11.7499C8.74351 12.5309 9.38351 12.6659 9.52051 12.5829C10.0455 12.2639 10.6415 10.0129 10.6415 10.0129H10.6405Z" fill="#133340"/>
<path fill-rule="evenodd" clip-rule="evenodd" d="M15.1996 10.9661C15.5326 12.4931 16.4506 14.3061 17.8486 15.4771C18.5376 16.0541 19.2596 16.7241 20.2486 16.6421C21.8296 16.5101 23.0656 15.7621 24.4646 16.9451C25.9856 18.2311 24.2336 19.7171 24.7846 21.2951C25.2766 22.7041 27.0536 23.9101 28.4136 24.3031C28.9316 24.4531 29.3626 24.8211 29.9106 24.5961C30.4126 24.3901 30.6616 23.8151 30.9616 23.4021C31.6686 22.4281 33.6896 19.5791 33.6896 19.5791C33.6896 19.5791 31.4796 17.8571 30.8026 17.2711C29.9706 16.5521 29.0406 15.9571 28.1546 15.3091C26.0156 13.7451 21.7076 11.4571 21.7076 11.4571C21.7076 11.4571 18.2106 11.1311 16.9756 10.8291C16.5666 10.7321 15.1416 10.7011 15.1996 10.9651V10.9661Z" fill="#133340"/>
<path fill-rule="evenodd" clip-rule="evenodd" d="M19.0205 40.6601C18.3505 41.0961 19.3105 38.9021 19.4635 38.5441C20.0275 37.2521 20.7045 36.0131 21.4855 34.8401C22.7655 32.9221 25.6295 30.4751 28.1985 28.9771C29.3695 28.3151 30.6205 27.8061 31.9205 27.4641C31.9205 27.4641 36.7345 30.8081 38.2685 32.9551C39.2265 34.2951 41.3765 35.8771 42.6505 38.1961C45.1465 42.7421 46.7535 48.3781 46.7535 48.3781L46.7055 52.0711L45.5765 52.0951C45.5765 52.0951 44.8065 48.7781 44.2815 47.2021C42.8745 42.9841 41.1355 38.7151 38.0005 35.5831C35.0395 32.6251 32.0715 31.0761 27.8955 31.9121C27.0205 32.0871 25.4075 32.9701 24.7205 33.4281C23.5425 34.2121 20.0145 40.0151 19.0195 40.6621L19.0205 40.6601Z" fill="white"/>
<path fill-rule="evenodd" clip-rule="evenodd" d="M46.6636 61.429C46.7176 60.422 45.2436 57.791 45.2436 57.791C44.6186 57.947 43.8696 59.544 42.8026 60.313C41.7356 61.081 39.7756 62.124 37.8906 63.469C36.8206 64.233 32.1586 65.504 32.1586 65.504C32.1586 65.504 33.6566 67.736 33.9776 68.058C35.2756 69.355 35.7406 70.651 36.5396 72.249C37.0306 73.23 37.4336 76.339 37.8196 77.366C39.1276 80.85 39.5986 82.769 41.0586 86.175C41.4836 87.164 42.0546 88.734 42.1476 89.33C42.2396 89.926 43.8456 94.861 44.1386 96.619C44.7396 100.224 44.5516 101.786 43.9436 105.431C43.5626 107.717 42.7546 111.355 42.8776 112.336C42.9876 113.206 43.7736 114.283 44.3486 114.858C45.5306 116.038 45.7996 117.322 47.7156 117.003C48.4526 116.88 51.1496 115.638 51.0736 115.525C50.9426 115.327 47.5246 114.904 46.8836 114.135C46.3106 113.449 46.1626 112.317 46.7336 111.69C46.8956 111.512 47.4956 110.878 47.4956 110.878C47.4956 110.878 46.8906 109.329 46.7206 108.477C46.3916 106.832 46.6126 104.509 46.6126 102.809C46.6126 94.685 46.4486 87.172 46.4486 79.048C46.4486 73.406 46.3646 67.064 46.6656 61.43L46.6636 61.429Z" fill="white"/>
<path fill-rule="evenodd" clip-rule="evenodd" d="M19.1716 60.628C19.1716 60.628 22.2476 60.512 23.1026 61.915C24.2586 63.813 24.3846 65.82 24.6696 68.256C24.9306 70.491 25.3886 73.147 25.5296 75.116C25.6616 76.965 26.1796 79.036 26.7356 80.622C27.2916 82.208 28.7306 85.147 30.2486 88.182C30.7116 89.108 31.3866 91.099 32.2036 91.752C33.2716 92.606 34.7456 94.517 36.0486 94.95C38.0316 95.611 41.8466 96.161 43.5626 94.448C43.5626 94.448 43.3066 93.172 43.2586 92.83C43.0536 91.392 41.9356 88.509 41.3936 87.151C40.7646 85.579 38.8166 81.113 38.3516 79.485C37.1346 75.229 37.4766 74.828 35.8386 70.734C35.2406 69.241 32.0416 65.336 32.0556 65.314C32.0556 65.314 34.3766 65.073 35.0366 64.742C38.2886 63.117 41.5846 61.681 44.1186 59.148C44.5726 58.694 46.3386 56.37 46.1576 55.649C46.0466 55.206 43.9776 51.832 43.9776 51.832C43.9776 51.832 42.7026 47.97 42.2486 46.153C41.8196 44.456 41.1616 42.824 40.2946 41.304C39.5026 39.986 38.5776 38.349 37.6206 37.154C36.9436 36.263 36.1516 35.464 35.2666 34.778C34.1666 33.954 32.6876 33.206 31.1226 33.047C28.2526 32.755 24.5756 34.218 22.8126 36.566C19.9126 40.43 19.4566 42.779 19.0226 47.552C18.8496 49.455 18.5596 53.675 18.8016 55.603C18.9906 57.128 19.1726 60.627 19.1726 60.627L19.1716 60.628Z" fill="white"/>
<path fill-rule="evenodd" clip-rule="evenodd" d="M91.0984 15.994C92.0474 14.707 93.6214 14 93.6214 14L260.938 14.092C260.938 14.092 263.193 15.171 263.554 16.754C263.856 18.084 263.824 28.117 263.824 28.117C263.824 28.117 267.384 27.356 268.581 27.723C276.295 31.545 295.988 38.248 301.253 41.612C305.142 44.098 306.153 45.285 306.206 46.657C306.239 47.463 306.355 49.093 306.355 49.093L306.686 108.926L305.27 111.073C305.27 111.073 306.7 112.941 306.372 114.005C306.044 115.069 303.957 115.33 303.957 115.33L295.985 115.889L84.9844 115.804C84.9844 115.804 60.8414 116.42 52.9324 115.656C48.8254 115.259 46.7374 114.538 46.1884 113.698C45.3764 112.456 47.4514 111.074 47.4514 111.074L46.6024 109.696L46.6664 50.098C46.6664 50.098 46.0064 45.156 48.5164 42.968C49.1914 42.379 50.6354 40.946 52.8374 39.975C56.7844 38.234 62.4924 36.319 68.4934 34.222C76.0054 31.595 81.7694 30.443 87.2504 29.458C89.2204 29.103 90.4034 30.206 90.4034 30.206C90.4034 30.206 90.1504 17.283 91.0994 15.995L91.0984 15.994Z" fill="#D7E8F4"/>
<path fill-rule="evenodd" clip-rule="evenodd" d="M64.2976 115.809L72.9966 115.833C72.9966 115.833 71.2626 130.71 70.1406 136.221C69.9016 137.397 68.8976 137.694 68.3746 137.771C67.7476 137.862 66.8716 137.579 66.5796 136.247C65.6296 131.917 64.2976 115.809 64.2976 115.809V115.809Z" fill="white"/>
<path fill-rule="evenodd" clip-rule="evenodd" d="M89.1185 115.836L93.6755 115.789C93.6755 115.789 93.7425 118.182 92.8885 119.135C92.0345 120.089 90.9635 120.766 90.1255 119.721C89.2875 118.677 89.1185 115.835 89.1185 115.835V115.836Z" fill="white"/>
<path fill-rule="evenodd" clip-rule="evenodd" d="M257.874 115.951L262.009 115.766C262.009 115.766 262.418 117.947 261.601 118.807C260.784 119.667 259.567 120.098 258.739 119.204C257.911 118.311 257.875 115.951 257.875 115.951H257.874Z" fill="white"/>
<path fill-rule="evenodd" clip-rule="evenodd" d="M280.89 115.678L289.475 115.967C289.475 115.967 287.922 129.274 286.583 136.225C286.51 136.627 286.299 136.991 285.987 137.254C285.674 137.517 285.28 137.664 284.872 137.668C284.355 137.631 283.315 137.267 283.172 136.242C282.242 129.571 280.89 115.678 280.89 115.678Z" fill="white"/>
<path d="M21.8746 140.681C21.7926 140.681 21.7126 140.657 21.6456 140.611C21.5776 140.566 21.5246 140.501 21.4936 140.426C21.4626 140.351 21.4546 140.268 21.4706 140.188C21.4866 140.107 21.5266 140.034 21.5846 139.976C23.3616 138.213 24.8966 136.69 26.3926 134.395C26.4526 134.304 26.5466 134.24 26.6526 134.218C26.7596 134.196 26.8706 134.218 26.9626 134.277C27.0536 134.336 27.1176 134.43 27.1406 134.537C27.1636 134.644 27.1426 134.755 27.0836 134.847C25.5386 137.215 23.9756 138.767 22.1656 140.562C22.0886 140.639 21.9836 140.682 21.8746 140.682V140.681Z" fill="#1B3445"/>
<path d="M339.096 96.7829C339.042 96.7829 338.988 96.7719 338.938 96.7519C338.888 96.7309 338.842 96.7009 338.804 96.6629C338.766 96.6239 338.735 96.5789 338.715 96.5289C338.694 96.4789 338.683 96.4249 338.684 96.3709C338.684 95.4239 338.914 94.4389 339.136 93.4859C339.407 92.3269 339.687 91.1289 339.532 90.0459C339.386 89.0269 339.038 87.9779 338.7 86.9629C338.505 86.3749 338.311 85.7899 338.152 85.2089C337.249 81.8999 336.471 78.9089 336.084 75.8199C335.935 74.6259 335.795 73.4199 335.656 72.2079C334.69 63.8519 333.692 55.2109 329.087 48.0529C327.757 46.0249 326.242 44.1239 324.561 42.3749C324.489 42.2949 324.451 42.1889 324.455 42.0809C324.46 41.9729 324.507 41.8709 324.586 41.7979C324.664 41.7239 324.77 41.6839 324.878 41.6869C324.985 41.6899 325.088 41.7339 325.164 41.8119C326.879 43.5979 328.424 45.5379 329.782 47.6079C334.49 54.9269 335.5 63.6649 336.476 72.1149C336.615 73.3239 336.755 74.5269 336.903 75.7189C337.283 78.7549 338.054 81.7149 338.949 84.9929C339.104 85.5599 339.294 86.1299 339.484 86.7039C339.833 87.7539 340.193 88.8389 340.35 89.9309C340.526 91.1669 340.228 92.4429 339.94 93.6739C339.719 94.6239 339.509 95.5199 339.509 96.3729C339.509 96.4829 339.466 96.5869 339.389 96.6649C339.311 96.7419 339.207 96.7849 339.097 96.7849L339.096 96.7829Z" fill="#1B3445"/>
<path d="M314.758 30.036C314.728 30.036 314.698 30.033 314.668 30.026C313.244 29.709 312.832 28.965 312.435 28.246C312.121 27.678 311.794 27.09 310.894 26.562C310.8 26.507 310.731 26.416 310.704 26.31C310.677 26.204 310.692 26.092 310.747 25.998C310.802 25.904 310.892 25.835 310.998 25.808C311.104 25.78 311.217 25.796 311.311 25.851C312.406 26.493 312.822 27.243 313.155 27.847C313.52 28.508 313.785 28.985 314.846 29.222C314.945 29.244 315.033 29.302 315.091 29.384C315.15 29.467 315.177 29.568 315.166 29.669C315.155 29.77 315.107 29.863 315.031 29.931C314.956 29.999 314.857 30.036 314.756 30.036H314.758Z" fill="#133340"/>
<path fill-rule="evenodd" clip-rule="evenodd" d="M296.903 23.595C296.858 23.192 297.079 22.842 297.398 22.814C297.716 22.786 298.009 23.09 298.054 23.493C298.098 23.895 297.877 24.245 297.559 24.274C297.24 24.303 296.948 23.998 296.903 23.595Z" fill="#1B3445"/>
<path d="M303.81 19.347C301.498 19.347 299.397 17.57 298.568 16.172C298.512 16.078 298.496 15.966 298.524 15.86C298.551 15.754 298.619 15.663 298.714 15.608C298.808 15.552 298.919 15.536 299.025 15.564C299.132 15.591 299.223 15.659 299.279 15.754C300.043 17.044 302.169 18.803 304.336 18.486C304.444 18.471 304.554 18.499 304.641 18.564C304.729 18.629 304.787 18.726 304.804 18.833C304.812 18.887 304.809 18.941 304.796 18.994C304.783 19.047 304.759 19.096 304.727 19.139C304.694 19.182 304.654 19.219 304.607 19.247C304.561 19.275 304.509 19.293 304.455 19.301C304.241 19.333 304.025 19.348 303.808 19.348L303.81 19.347Z" fill="#133340"/>
<path d="M295.106 19.251C295.047 19.251 294.987 19.238 294.933 19.213C292.89 18.273 292.547 16.094 293.262 14.428C293.306 14.329 293.388 14.251 293.489 14.212C293.59 14.172 293.702 14.174 293.802 14.217C293.902 14.26 293.98 14.34 294.021 14.44C294.062 14.54 294.062 14.653 294.021 14.753C293.48 16.013 293.643 17.713 295.279 18.465C295.364 18.504 295.434 18.572 295.475 18.656C295.517 18.74 295.529 18.836 295.509 18.928C295.488 19.02 295.437 19.102 295.364 19.161C295.291 19.22 295.2 19.252 295.106 19.252V19.251Z" fill="#133340"/>
<path d="M30.9316 23.892C30.8556 23.892 30.7816 23.871 30.7166 23.831C30.6516 23.791 30.5996 23.735 30.5646 23.668C30.5296 23.601 30.5146 23.525 30.5206 23.45C30.5266 23.375 30.5526 23.302 30.5966 23.24L30.8826 22.842C31.6336 21.797 32.4096 20.716 33.0906 19.647C33.1196 19.601 33.1576 19.562 33.2016 19.531C33.2456 19.5 33.2956 19.478 33.3486 19.466C33.4016 19.454 33.4566 19.453 33.5096 19.462C33.5626 19.471 33.6136 19.491 33.6596 19.52C33.7056 19.549 33.7446 19.587 33.7756 19.631C33.8066 19.675 33.8286 19.725 33.8406 19.778C33.8526 19.831 33.8536 19.885 33.8446 19.939C33.8356 19.992 33.8156 20.043 33.7866 20.089C33.0936 21.177 32.3106 22.267 31.5536 23.322L31.2686 23.72C31.2306 23.773 31.1796 23.817 31.1216 23.847C31.0626 23.877 30.9986 23.893 30.9326 23.892H30.9316Z" fill="#133340"/>
<path d="M26.9845 24.2959C26.9105 24.2959 26.8375 24.2759 26.7735 24.2379C25.9895 23.7709 25.0755 22.1879 25.1785 21.1459C25.1835 21.0919 25.1985 21.0389 25.2235 20.9909C25.2485 20.9429 25.2835 20.8999 25.3255 20.8659C25.3675 20.8319 25.4165 20.8059 25.4685 20.7899C25.5205 20.7749 25.5755 20.7699 25.6295 20.7759C25.7385 20.7869 25.8385 20.8399 25.9075 20.9249C25.9765 21.0099 26.0095 21.1179 25.9985 21.2269C25.9245 21.9719 26.7135 23.2429 27.1955 23.5299C27.2735 23.5759 27.3335 23.6469 27.3665 23.7299C27.4005 23.8139 27.4055 23.9059 27.3815 23.9929C27.3575 24.0799 27.3055 24.1569 27.2335 24.2109C27.1615 24.2659 27.0735 24.2949 26.9835 24.2949L26.9845 24.2959Z" fill="#133340"/>
<path d="M30.0485 25.298H30.0425C29.2085 25.285 28.0805 24.587 27.7955 23.606C27.7645 23.501 27.7775 23.388 27.8295 23.293C27.8825 23.197 27.9705 23.126 28.0755 23.096C28.1805 23.066 28.2935 23.078 28.3895 23.13C28.4855 23.183 28.5565 23.271 28.5865 23.376C28.7565 23.958 29.5345 24.466 30.0545 24.474C30.1635 24.474 30.2685 24.519 30.3455 24.597C30.4225 24.675 30.4645 24.78 30.4645 24.889C30.4645 24.998 30.4195 25.103 30.3415 25.18C30.2635 25.257 30.1585 25.299 30.0485 25.298V25.298Z" fill="#133340"/>
<path fill-rule="evenodd" clip-rule="evenodd" d="M11.5426 18.5999C11.4986 18.1979 11.7196 17.8479 12.0376 17.8199C12.3556 17.7919 12.6486 18.0949 12.6936 18.4989C12.7386 18.9019 12.5166 19.2509 12.1986 19.2799C11.8806 19.3089 11.5876 19.0029 11.5426 18.5999V18.5999Z" fill="#1B3445"/>
<path d="M20.3986 16.8411C18.8466 16.8411 17.4746 15.9791 16.4066 14.3271C15.9216 13.5531 15.4796 12.7511 15.0846 11.9271C14.9456 11.6481 14.8216 11.3991 14.7106 11.1961C14.6846 11.1481 14.6686 11.0961 14.6626 11.0421C14.6566 10.9881 14.6626 10.9341 14.6776 10.8821C14.7086 10.7771 14.7806 10.6891 14.8766 10.6371C14.9726 10.5851 15.0856 10.5731 15.1906 10.6041C15.2956 10.6351 15.3836 10.7071 15.4356 10.8031C15.5496 11.0131 15.6776 11.2701 15.8226 11.5601C16.2036 12.3571 16.6296 13.1311 17.0986 13.8801C18.1006 15.4311 19.3326 16.1441 20.7526 15.9991C20.8066 15.9941 20.8606 15.9991 20.9126 16.0141C20.9646 16.0301 21.0126 16.0551 21.0546 16.0891C21.0966 16.1231 21.1316 16.1651 21.1576 16.2131C21.1836 16.2611 21.1996 16.3131 21.2046 16.3671C21.2096 16.4211 21.2046 16.4751 21.1896 16.5271C21.1746 16.5791 21.1486 16.6271 21.1146 16.6691C21.0806 16.7111 21.0386 16.7461 20.9906 16.7721C20.9426 16.7981 20.8906 16.8141 20.8366 16.8191C20.6916 16.8341 20.5456 16.8411 20.3986 16.8421V16.8411Z" fill="#133340"/>
<path d="M305.777 21.9831C304.78 21.9831 303.618 21.2331 303.105 20.3881C303.048 20.2941 303.031 20.1821 303.057 20.0761C303.083 19.9701 303.15 19.8781 303.244 19.8221C303.338 19.7651 303.45 19.7481 303.556 19.7741C303.663 19.8001 303.754 19.8671 303.81 19.9611C304.278 20.7311 305.456 21.3331 306.065 21.1151C306.116 21.0961 306.17 21.0871 306.225 21.0891C306.28 21.0911 306.333 21.1031 306.383 21.1261C306.432 21.1491 306.477 21.1811 306.515 21.2211C306.552 21.2611 306.58 21.3081 306.6 21.3591C306.618 21.4101 306.627 21.4651 306.624 21.5191C306.621 21.5741 306.608 21.6271 306.584 21.6761C306.56 21.7251 306.528 21.7701 306.487 21.8061C306.447 21.8421 306.399 21.8701 306.348 21.8881C306.164 21.9531 305.972 21.9841 305.778 21.9821L305.777 21.9831Z" fill="#133340"/>
<path d="M293.912 196.181H293.885C292.655 196.175 292.189 195.8 291.777 195.468C291.409 195.128 290.925 194.94 290.424 194.944C289.542 194.876 288.655 194.993 287.821 195.29C287.189 195.493 286.543 195.645 285.886 195.746C283.83 196.057 281.179 196.057 277.779 195.749C276.658 195.647 273.888 195.301 272.348 194.286C270.865 193.309 270.591 191.849 271.087 190.974C271.578 190.107 273.278 189.401 274.025 189.195C274.448 189.079 274.878 188.964 275.308 188.85C276.797 188.456 278.335 188.047 279.746 187.458C281.12 186.887 282.081 186.018 283.1 185.099C283.707 184.528 284.35 183.996 285.026 183.507C285.116 183.447 285.225 183.425 285.332 183.445C285.438 183.465 285.532 183.526 285.593 183.614C285.655 183.703 285.679 183.812 285.661 183.919C285.643 184.025 285.584 184.12 285.497 184.183C284.851 184.653 284.235 185.163 283.654 185.71C282.628 186.636 281.569 187.594 280.065 188.22C278.603 188.829 277.036 189.245 275.521 189.645C275.093 189.759 274.667 189.873 274.247 189.988C273.429 190.214 272.107 190.851 271.807 191.378C271.492 191.938 271.778 192.92 272.805 193.597C273.765 194.229 275.653 194.726 277.856 194.927C281.19 195.23 283.777 195.23 285.765 194.93C286.382 194.835 286.99 194.691 287.584 194.499C288.511 194.175 289.494 194.047 290.473 194.121C291.492 194.18 291.919 194.522 292.295 194.825C292.646 195.107 292.949 195.35 293.892 195.355C295.403 195.352 298.924 195.248 300.098 194.841C301.075 194.501 300.798 192.533 300.447 190.857C300.068 189.044 298.917 185.481 298.663 184.792C298.645 184.741 298.636 184.687 298.638 184.633C298.64 184.579 298.653 184.526 298.676 184.477C298.698 184.428 298.731 184.384 298.77 184.347C298.81 184.31 298.856 184.282 298.907 184.263C298.957 184.245 299.011 184.236 299.065 184.238C299.119 184.24 299.172 184.253 299.222 184.276C299.271 184.298 299.315 184.33 299.351 184.37C299.388 184.41 299.416 184.456 299.436 184.507C299.747 185.347 300.885 188.921 301.254 190.688C301.546 192.087 302.156 194.998 300.368 195.62C298.79 196.167 294.302 196.18 293.913 196.18L293.912 196.181Z" fill="#1B3445"/>
<path d="M293.943 197.148H293.804C292.515 197.141 292.062 196.512 291.698 196.007C291.394 195.586 291.174 195.281 290.477 195.24C289.4 195.179 288.783 195.506 288.068 195.888C287.371 196.3 286.604 196.58 285.805 196.713C283.75 197.025 281.098 197.025 277.697 196.716C277.011 196.654 273.504 196.29 271.89 195.226C270.628 194.395 270.022 193.46 270.904 191.366C270.947 191.265 271.027 191.186 271.129 191.144C271.23 191.103 271.344 191.104 271.444 191.146C271.545 191.189 271.625 191.269 271.666 191.371C271.707 191.472 271.707 191.585 271.664 191.686C270.986 193.298 271.326 193.869 272.343 194.538C273.466 195.28 275.968 195.733 277.77 195.896C281.104 196.2 283.691 196.2 285.68 195.9C286.386 195.779 287.064 195.528 287.679 195.161C288.434 194.76 289.219 194.34 290.523 194.418C291.613 194.481 292.031 195.061 292.366 195.526C292.697 195.987 292.938 196.32 293.807 196.324C295.376 196.326 299.052 196.217 300.227 195.809C300.94 195.562 301.333 195.426 300.826 193.71C300.811 193.658 300.806 193.603 300.812 193.55C300.818 193.496 300.834 193.443 300.86 193.396C300.886 193.349 300.921 193.306 300.963 193.273C301.006 193.239 301.054 193.214 301.106 193.198C301.158 193.182 301.212 193.177 301.266 193.183C301.32 193.189 301.372 193.205 301.42 193.231C301.467 193.257 301.509 193.292 301.543 193.334C301.577 193.377 301.602 193.425 301.618 193.476C302.293 195.76 301.511 196.235 300.501 196.586C299.165 197.049 295.366 197.147 293.942 197.147L293.943 197.148Z" fill="#1B3445"/>
<path d="M64.2976 115.809C64.2976 115.809 65.2286 135.993 66.8956 137.184C68.5636 138.375 69.9906 137.403 70.1406 136.221C70.2906 135.04 72.9186 115.773 72.9186 115.773" stroke="#1B3445" stroke-width="0.992" stroke-linecap="round" stroke-linejoin="round"/>
<path d="M281.149 116.158C281.149 116.158 282.072 135.993 283.74 137.184C285.408 138.375 286.835 137.403 286.985 136.221C287.135 135.04 289.756 116.128 289.756 116.128" stroke="#1B3445" stroke-width="0.992" stroke-linecap="round" stroke-linejoin="round"/>
<path d="M47.5386 110.987C47.5386 110.987 45.7506 112.243 46.1966 113.091C46.6426 113.939 48.8326 115.503 52.8526 115.682C56.8726 115.861 286.78 116.072 289.474 115.966C292.168 115.86 303.425 115.682 304.974 115.026C306.523 114.37 307.172 113.318 305.358 110.985" stroke="#1B3445" stroke-width="0.992" stroke-linecap="round" stroke-linejoin="round"/>
<path d="M89.0836 115.883C89.0836 115.883 89.3066 119.412 90.4126 120.015C91.5186 120.618 93.7186 119.591 93.6516 116.106" stroke="#1B3445" stroke-width="0.992" stroke-linecap="round" stroke-linejoin="round"/>
<path d="M257.726 116.024C257.726 116.024 257.994 119.412 259.1 120.015C260.206 120.618 262.406 119.591 262.339 116.106" stroke="#1B3445" stroke-width="0.992" stroke-linecap="round" stroke-linejoin="round"/>
<path d="M90.1416 65.2251V18.5711C90.1416 18.5711 90.2896 13.7831 94.8906 13.8721C99.4916 13.9611 259.735 13.8721 259.735 13.8721C259.735 13.8721 264.173 13.7681 263.994 19.7241C263.815 25.6801 263.28 65.6501 263.28 65.6501L90.1406 65.2251H90.1416Z" stroke="#1B3445" stroke-width="0.992" stroke-linecap="round" stroke-linejoin="round"/>
<path d="M87.2075 37.0571C87.2075 37.0571 69.8395 43.5641 67.7895 44.5621C65.4965 45.6791 62.3695 46.7061 61.8335 49.7441C61.2975 52.7821 61.3635 107.215 61.5955 108.534C61.8275 109.853 61.5355 111.453 68.1475 111.453C74.7595 111.453 282.818 112.168 284.367 112.108C285.916 112.048 290.562 112.108 291.336 110.023C292.11 107.938 291.217 51.6501 291.038 50.2801C290.859 48.9101 291.038 45.9321 284.962 42.8941C278.886 39.8561 267.093 34.6741 267.093 34.6741" stroke="#1B3445" stroke-width="0.992" stroke-linecap="round" stroke-linejoin="round"/>
<path d="M48.9666 45.2169C48.9666 45.2169 55.8166 43.7279 59.5096 45.4549" stroke="#1B3445" stroke-width="0.992" stroke-linecap="round" stroke-linejoin="round"/>
<path d="M89.9776 29.999C89.9776 29.999 89.0846 29.016 86.0466 29.552C83.0086 30.088 72.8236 32.232 66.7476 34.555C60.6716 36.878 52.3626 39.916 50.3976 41.256C48.4316 42.596 47.1816 43.936 47.0026 47.332C46.8236 50.727 46.4666 107.73 46.6456 109.16C46.8246 110.59 47.1816 111.126 47.1816 111.126" stroke="#1B3445" stroke-width="0.992" stroke-linecap="round" stroke-linejoin="round"/>
<path d="M90.1415 65.2251C74.3135 71.9501 61.5725 93.0821 61.5725 93.0821H291.572" stroke="#1B3445" stroke-width="0.992" stroke-linecap="round" stroke-linejoin="round"/>
<path d="M263.568 65.655C263.568 65.655 287.999 84.827 291.335 92.928" stroke="#1B3445" stroke-width="0.992" stroke-linecap="round" stroke-linejoin="round"/>
<path d="M292.667 46.7849C292.667 46.7849 299.809 44.3019 303.806 46.5309" stroke="#1B3445" stroke-width="0.992" stroke-linecap="round" stroke-linejoin="round"/>
<path d="M263.935 28.3901C263.935 28.3901 265.99 26.9601 269.206 28.1221C272.422 29.2841 298.078 40.0911 301.103 41.5241C304.127 42.9571 305.262 44.2871 305.848 46.6081C306.434 48.9291 306.464 106.925 306.107 109.159C305.75 111.393 299.614 114.371 291.335 110.023" stroke="#1B3445" stroke-width="0.992" stroke-linecap="round" stroke-linejoin="round"/>
<path d="M32.3036 65.4021C32.3036 65.4021 34.8576 68.5861 35.8366 70.7351C36.8156 72.8841 37.7086 78.3351 38.9596 81.1041C40.2106 83.8741 43.4266 92.0041 44.4096 97.3651C45.3926 102.726 42.7706 110.596 42.8756 112.334C42.9806 114.072 45.2136 116.842 46.2856 116.932C47.3576 117.021 50.0196 115.698 50.5076 115.525" stroke="#1B3445" stroke-width="0.992" stroke-linecap="round" stroke-linejoin="round"/>
<path d="M45.4155 57.8081C45.4155 57.8081 46.6295 60.5481 46.7785 60.7561" stroke="#1B3445" stroke-width="0.992" stroke-linecap="round" stroke-linejoin="round"/>
<path d="M46.9726 48.6109C46.9726 48.6109 45.0366 41.1669 42.0426 37.0569C39.0496 32.9469 32.8626 27.2539 31.8236 27.3979C30.7846 27.5419 26.6296 30.0429 24.6196 31.8299C22.6096 33.6169 19.8396 36.2969 18.8566 39.6919C17.8736 43.0869 16.5786 50.6369 16.7126 54.2109C16.8466 57.7849 17.0256 59.9739 17.0256 59.9739" stroke="#1B3445" stroke-width="0.992" stroke-linecap="round" stroke-linejoin="round"/>
<path d="M10.4586 24.236C10.4586 24.236 11.1736 24.303 12.6926 24.035C13.0476 23.972 13.2506 25.353 10.9506 26.023" stroke="#1B3445" stroke-width="0.992" stroke-linecap="round" stroke-linejoin="round"/>
<path d="M22.5205 20.204C22.5205 20.204 22.6215 19.411 23.4135 18.875" stroke="#1B3445" stroke-width="0.992" stroke-linecap="round" stroke-linejoin="round"/>
<path d="M22.2306 16.6641C22.2306 16.6641 24.9776 15.3681 25.1346 17.9371C25.2906 20.5061 24.7546 21.1531 22.5216 22.4711" stroke="#1B3445" stroke-width="0.992" stroke-linecap="round" stroke-linejoin="round"/>
<path d="M21.8056 34.4059C21.8056 34.4059 20.2866 31.5169 18.5596 30.9209C16.8326 30.3249 13.1986 30.6529 12.1566 30.1169C11.1146 29.5809 10.7566 28.4189 10.8466 27.7939" stroke="#1B3445" stroke-width="0.992" stroke-linecap="round" stroke-linejoin="round"/>
<path d="M10.8606 15.792C10.8606 15.792 11.8436 14.943 13.3396 15.814" stroke="#1B3445" stroke-width="0.992" stroke-linecap="round" stroke-linejoin="round"/>
<path d="M10.3026 18.0039C10.3026 18.0039 10.4816 19.2769 9.54358 20.1929C8.60558 21.1089 8.85158 21.5329 9.90058 22.2479" stroke="#1B3445" stroke-width="0.992" stroke-linecap="round" stroke-linejoin="round"/>
<path d="M25.6775 58.7981C25.6775 58.7981 27.6435 63.5041 28.8345 64.3971C30.0255 65.2901 31.9315 65.6481 34.3735 64.8141C36.8155 63.9801 43.2485 60.8231 44.7975 58.5001C46.3465 56.1771 46.2275 54.9861 45.3335 53.7351C44.4405 52.4841 42.6535 46.4681 41.2235 43.3111C39.7935 40.1541 36.5175 34.4361 32.1105 33.5421C27.7035 32.6481 24.3675 34.9721 22.5205 36.8781C20.6745 38.7841 18.6485 43.9071 20.4955 48.4931C22.3415 53.0791 25.6775 58.7981 25.6775 58.7981Z" stroke="#1B3445" stroke-width="0.992" stroke-linecap="round" stroke-linejoin="round"/>
<path d="M31.7825 27.288C31.7825 27.288 30.0255 24.905 29.6385 24.072" stroke="#1B3445" stroke-width="0.992" stroke-linecap="round" stroke-linejoin="round"/>
<path d="M9.86257 14.154C9.86257 14.154 9.71357 11.831 10.2796 10.282" stroke="#1B3445" stroke-width="0.992" stroke-linecap="round" stroke-linejoin="round"/>
<path d="M21.0016 11.266C21.0016 11.266 12.1566 10.849 8.34456 8.91304C4.63056 7.02704 2.59656 7.75104 2.59656 7.75104C3.13256 7.24504 12.0076 5.69604 12.0076 5.69604C12.0076 5.69604 28.7306 14.273 33.5106 19.813" stroke="#1B3445" stroke-width="0.992" stroke-linecap="round" stroke-linejoin="round"/>
<path d="M9.59461 12.1891C9.59461 12.1891 1.5236 11.8321 2.3876 7.87109" stroke="#1B3445" stroke-width="0.992" stroke-linecap="round" stroke-linejoin="round"/>
<path d="M12.0076 5.69594C12.0076 5.69594 15.7306 1.36294 19.9746 1.31794C24.2186 1.27294 30.5176 2.38994 33.6896 6.54494C36.8616 10.6999 36.6036 15.2089 33.6606 19.5209" stroke="#1B3445" stroke-width="0.992" stroke-linecap="round" stroke-linejoin="round"/>
<path d="M23.2946 109.368C23.2946 109.368 24.5456 110.857 24.8436 113.716C25.1416 116.575 27.0476 135.755 27.1666 138.137C27.2856 140.52 26.6306 148.203 29.3106 151.42C31.9906 154.636 35.0886 156.662 36.8156 158.985C38.5426 161.308 45.0896 169.313 47.5966 171.136C50.1036 172.96 50.1576 172.327 52.2426 174.65C54.3276 176.973 54.9626 181.797 56.9516 182.441C58.9406 183.085 58.8286 182.373 61.4746 182.751C64.1216 183.129 66.7166 182.394 68.0866 179.296C69.4566 176.198 67.3126 176.675 66.3596 174.829C65.4066 172.983 62.6666 167.324 60.7006 165.12C58.7346 162.916 56.6506 160.355 54.9226 157.138C53.1946 153.921 51.7656 152.552 49.0256 150.229C46.2856 147.906 46.4046 146.596 46.4046 146.596" stroke="#1B3445" stroke-width="0.992" stroke-linecap="round" stroke-linejoin="round"/>
<path d="M46.5546 144.496C46.5546 144.496 46.0636 141.414 47.4476 139.135C48.8326 136.857 48.1626 133.685 48.4306 131.853C48.6986 130.021 51.2286 115.606 51.2286 115.606" stroke="#1B3445" stroke-width="0.992" stroke-linecap="round" stroke-linejoin="round"/>
<path d="M58.4976 182.96C58.4976 182.96 57.1276 185.73 56.2636 187.993C55.3996 190.256 50.6346 191.537 49.5626 193.056C48.4906 194.575 48.1926 195.736 49.7116 196.66C51.2306 197.583 58.5866 198.417 61.3566 197.702C64.1266 196.987 63.8286 193.92 67.4916 192.311C71.1546 190.702 75.0856 189.452 75.3246 186.772C75.5626 184.092 68.6836 178.254 68.6836 178.254" stroke="#1B3445" stroke-width="0.992" stroke-linecap="round" stroke-linejoin="round"/>
<path d="M48.6985 194.664C48.6985 194.664 47.7455 196.332 49.0555 197.404C50.3655 198.476 55.7265 199.28 59.2705 199.102C62.8145 198.923 64.5415 197.553 65.4055 195.826C66.2695 194.099 67.4605 192.58 69.1285 192.431C70.7965 192.282 74.5785 190.704 75.5615 189.185C76.5445 187.666 75.8895 186.356 74.7275 184.807" stroke="#1B3445" stroke-width="0.992" stroke-linecap="round" stroke-linejoin="round"/>
<path d="M21.8055 140.103C21.8055 140.103 26.2365 136.192 26.8805 134.976" stroke="#1B3445" stroke-width="0.992" stroke-linecap="round" stroke-linejoin="round"/>
<path d="M20.9716 142.605C22.6986 146.179 22.5206 152.791 24.2476 158.39C25.9746 163.989 25.6176 164.942 25.3796 166.729C25.1416 168.516 25.9156 169.052 27.4646 171.196C29.0136 173.34 28.5966 174.293 28.1196 176.08C27.6426 177.867 30.3236 177.45 28.7396 179.853C27.1556 182.256 21.2706 182.99 19.9596 181.441C18.6496 179.892 16.5046 180.667 14.9756 178.882C13.4456 177.097 13.9436 173.341 13.2296 170.065C12.5146 166.789 10.4896 165.479 9.00061 163.215C7.51161 160.952 2.26961 144.631 0.959607 138.734C-0.350393 132.837 3.63961 127.357 4.95061 125.272C6.26061 123.187 12.9916 111.93 15.6726 104.246C18.3526 96.5619 19.6646 94.2429 19.6646 94.2429C19.6646 94.2429 37.4136 99.2419 43.6086 95.7879" stroke="#1B3445" stroke-width="0.992" stroke-linecap="round" stroke-linejoin="round"/>
<path d="M15.1046 179.475C15.1046 179.475 12.3046 182.96 10.7866 183.525C9.26862 184.09 3.99662 185.431 2.14962 187.069C1.11562 187.986 0.00561768 189.541 1.49462 190.851C2.98362 192.161 13.1696 192.727 14.8076 192.221C16.4456 191.715 18.3816 189.868 20.2876 190.553C22.1936 191.238 21.9256 191.953 23.8016 191.804C25.6776 191.655 28.7676 191.998 29.5126 191.313C30.2576 190.628 31.2776 188.945 30.3836 185.908C29.4906 182.87 28.6856 180.339 28.6856 180.339" stroke="#1B3445" stroke-width="0.992" stroke-linecap="round" stroke-linejoin="round"/>
<path d="M0.838626 189.72C0.838626 189.72 0.123626 190.554 1.46363 191.924C2.80363 193.294 10.1896 193.681 13.2876 193.324C16.3856 192.967 19.3336 190.286 20.4356 190.852C21.5376 191.418 21.8656 192.698 23.6226 192.907C25.3796 193.115 29.4006 192.967 30.2936 192.55C31.1866 192.133 30.7406 188.276 30.7406 188.276" stroke="#1B3445" stroke-width="0.992" stroke-linecap="round" stroke-linejoin="round"/>
<path d="M296.517 20.587C296.517 20.587 297.649 19.634 298.959 21.123" stroke="#1B3445" stroke-width="0.992" stroke-linecap="round" stroke-linejoin="round"/>
<path d="M295.415 19.634C295.415 19.634 295.177 17.043 296.07 15.762" stroke="#1B3445" stroke-width="0.992" stroke-linecap="round" stroke-linejoin="round"/>
<path d="M295.623 22.97C295.623 22.97 295.802 24.519 294.878 25.233C293.954 25.947 294.253 26.931 295.116 27.318" stroke="#1B3445" stroke-width="0.992" stroke-linecap="round" stroke-linejoin="round"/>
<path d="M296.279 30.505C296.279 30.505 298.185 30.416 298.9 29.79" stroke="#1B3445" stroke-width="0.992" stroke-linecap="round" stroke-linejoin="round"/>
<path d="M308.46 23.9529C308.46 23.9529 307.298 24.4589 307.447 25.2929" stroke="#1B3445" stroke-width="0.992" stroke-linecap="round" stroke-linejoin="round"/>
<path d="M307.923 27.4971C307.923 27.4971 310.752 26.4251 310.574 23.7151C310.395 21.0051 308.639 21.0351 307.865 21.6901" stroke="#1B3445" stroke-width="0.992" stroke-linecap="round" stroke-linejoin="round"/>
<path d="M296.189 32.232C296.189 32.232 295.653 35.24 298.631 35.419C301.609 35.598 301.639 34.406 302.92 36.134C304.201 37.861 304.773 40.652 304.773 40.652C304.773 40.652 310.306 42.954 315.666 33.662C315.666 33.662 314.594 31.026 314.504 29.239" stroke="#1B3445" stroke-width="0.992" stroke-linecap="round" stroke-linejoin="round"/>
<path d="M287.433 13.0231C287.433 13.0231 291.052 12.9781 293.643 14.4971C296.234 16.0161 306.017 16.3731 306.017 16.3731" stroke="#1B3445" stroke-width="0.992" stroke-linecap="round" stroke-linejoin="round"/>
<path d="M293.822 17.445C293.822 17.445 287.255 17.802 287.166 13.022L296.917 10.962C296.917 10.962 298.692 8.73404 300.255 8.10804C301.819 7.48304 302.355 6.81204 304.052 6.50004C305.749 6.18804 313.165 6.45504 318.75 11.325C324.334 16.194 318.727 24.969 318.727 24.969" stroke="#1B3445" stroke-width="0.992" stroke-linecap="round" stroke-linejoin="round"/>
<path d="M296.916 10.9619C296.916 10.9619 314.594 21.1079 318.57 24.9049" stroke="#1B3445" stroke-width="0.992" stroke-linecap="round" stroke-linejoin="round"/>
<path d="M304.774 40.6521C304.774 40.6521 303.892 41.7441 303.793 42.5951" stroke="#1B3445" stroke-width="0.992" stroke-linecap="round" stroke-linejoin="round"/>
<path d="M315.801 33.5281C315.801 33.5281 317.475 34.6861 319.017 36.3871C320.536 38.0621 322.948 40.1171 322.948 40.1171" stroke="#1B3445" stroke-width="0.992" stroke-linecap="round" stroke-linejoin="round"/>
<path d="M310.098 49.863C310.098 49.863 309.774 55.952 313.137 61.931" stroke="#1B3445" stroke-width="0.992" stroke-linecap="round" stroke-linejoin="round"/>
<path d="M329.203 54.48L329.873 57.205" stroke="#1B3445" stroke-width="0.992" stroke-linecap="round" stroke-linejoin="round"/>
<path d="M315.203 65.0701C315.203 65.0701 314.415 65.5951 313.998 64.7881C313.581 63.9811 312.569 63.8311 312.569 63.3551C312.569 62.8791 314.832 59.7511 317.423 58.5601C320.014 57.3691 324.362 55.4331 329.574 57.3391C329.574 57.3391 331.748 57.1601 330.884 59.4241C330.884 59.4241 331.926 60.9731 331.271 61.0021C330.616 61.0311 320.991 57.6131 315.201 65.0701H315.203Z" stroke="#1B3445" stroke-width="0.992" stroke-linecap="round" stroke-linejoin="round"/>
<path d="M315.059 65.29C315.059 65.29 320.581 74.82 321.117 77.262C321.653 79.704 321.594 80.717 318.02 85.244C314.446 89.771 312.064 97.038 309.443 99.361C306.822 101.684 306.307 101.644 306.307 101.644" stroke="#1B3445" stroke-width="0.992" stroke-linecap="round" stroke-linejoin="round"/>
<path d="M294.224 116.084L289.219 121.891" stroke="#1B3445" stroke-width="0.992" stroke-linecap="round" stroke-linejoin="round"/>
<path d="M331.155 60.7219C331.155 60.7219 332.196 71.4559 333.357 74.2259C334.519 76.9959 335.901 80.9439 334.406 82.9909C332.911 85.0379 327.461 92.6319 320.134 97.9029C312.808 103.174 310.753 107.374 309.68 109.697C308.608 112.02 308.518 117.649 300.745 115.773" stroke="#1B3445" stroke-width="0.992" stroke-linecap="round" stroke-linejoin="round"/>
<path d="M282.341 132.032C282.341 132.032 279.679 135.075 280.375 141.324C281.071 147.573 283.86 160.712 284.038 163.839C284.217 166.966 283.681 172.863 284.753 174.65C285.825 176.437 286.095 177.984 286.093 179.207C286.091 180.43 284.038 182.334 286.004 183.942C287.97 185.55 292.794 187.963 296.279 186.801C299.764 185.639 299.334 184.023 299.102 181.659C298.87 179.296 300.746 174.382 300.3 171.523C299.854 168.664 299.049 161.427 299.675 157.317C300.3 153.207 299.943 148.74 299.407 145.166" stroke="#1B3445" stroke-width="0.992" stroke-linecap="round" stroke-linejoin="round"/>
<path d="M299.942 142.575C299.942 142.575 302.558 139.995 303.516 138.822C304.474 137.65 307.655 132.419 309.696 131.332C311.736 130.245 320.492 124.259 321.832 122.918C323.172 121.578 327.13 116.756 331.092 116.129" stroke="#1B3445" stroke-width="0.992" stroke-linecap="round" stroke-linejoin="round"/>
<path d="M339.021 96.5381C339.021 96.5381 340.505 103.531 339.88 107.82C339.255 112.109 333.626 122.741 333.358 125.779C333.09 128.817 333.09 138.198 332.822 140.074" stroke="#1B3445" stroke-width="0.992" stroke-linecap="round" stroke-linejoin="round"/>
<path d="M309.879 131.076C309.879 131.076 311.11 144.362 318.437 151.331C325.763 158.3 334.341 170.272 337.2 171.523C340.059 172.774 341.221 173.221 341.667 174.203C342.114 175.186 345.42 176.079 346.402 177.151C347.385 178.223 347.196 180.718 348.318 181.302C349.44 181.886 356.051 183.584 358.553 182.869C361.055 182.154 363.11 179.384 362.127 177.33C361.144 175.275 357.302 173.041 356.051 169.646C354.8 166.251 346.848 157.227 344.704 154.457C342.56 151.687 334.608 146.058 333.625 144.003" stroke="#1B3445" stroke-width="0.992" stroke-linecap="round" stroke-linejoin="round"/>
<path d="M349.887 181.977C349.887 181.977 349.396 183.809 347.251 185.015C345.107 186.221 338.197 188.556 337.855 190.315C337.513 192.074 338.004 193.369 344.258 193.28C350.512 193.191 353.193 193.325 354.667 192.253C356.141 191.181 357.705 192.253 360.475 191.36C363.245 190.467 367.394 187.55 367.597 186.909C367.8 186.268 365.158 181.25 362.459 179.113" stroke="#1B3445" stroke-width="0.992" stroke-linecap="round" stroke-linejoin="round"/>
<path d="M337.958 191.894C337.958 191.894 338.406 193.547 340.461 194.262C342.516 194.977 351.226 195.736 352.566 195.066C353.906 194.396 355.246 192.073 356.185 192.028C357.123 191.983 359.179 193.011 360.921 193.1C362.663 193.189 368.47 191.134 368.693 189.571C368.916 188.007 367.577 186.176 367.577 186.176" stroke="#1B3445" stroke-width="0.992" stroke-linecap="round" stroke-linejoin="round"/>
</svg>
